<?xml version="1.0" encoding="UTF-8"?>
<svg width="1271" height="395" viewBox="0 0 12710 3950" xmlns="http://www.w3.org/2000/svg">
    <g fill="#fff">
        <path d="m524 3935c-210-47-374-179-452-366-63-153-64-169-69-771l-5-548h384 383l33 79c70 166 233 364 388 471 184 127 373 189 604 197 323 12 585-85 816-300 234-217 357-504 357-827 0-318-124-609-351-822-217-204-480-308-777-308-321 0-597 118-820 352-106 110-185 232-238 366l-17 42h-379-379l28-109c165-628 661-1135 1288-1315 178-51 310-69 517-69s334 17 510 68c803 232 1355 963 1355 1795 0 879-607 1630-1474 1825-476 107-1002 9-1409-262-56-38-105-69-109-71-5-2-8 34-8 81 0 46-3 179-7 295l-6 212-51-1c-28-1-78-7-112-14z"/>
        <path d="m4460 2900v-281l134 6 118 210c64 116 126 226 137 245l20 35 1-247v-248h40 40v280 280h-69-68l-111-192c-61-106-121-214-133-240-13-27-25-48-28-48-4 0-4 108-2 240l3 240h-41-41v-280z"/>
        <path d="m5160 2900v-280h40 40v280 280h-40-40v-280z"/>
        <path d="m5515 3166c-70-31-85-79-88-272-2-131 0-154 18-189 31-62 71-79 195-83 178-7 230 23 230 131v47h-40c-40 0-40 0-40-38 0-64-20-75-140-70-144 4-143 2-138 216 4 206 1 202 149 202 117 0 139-13 139-80v-40h41 41l-4 60c-5 66-23 94-75 116-43 19-247 18-288 0z"/>
        <path d="m6040 2900v-280h180 180v35 35h-140-140v85 85h135 135v30 30h-135-135v95 95h145 145v35 35h-185-185v-280z"/>
        <path d="m6913 3165c-39-17-63-61-63-115 0-39 1-40 35-40 30 0 35 4 41 28 13 61 21 70 70 78 61 9 165-2 183-20 7-8 16-36 18-63 4-37 1-54-14-72-17-20-31-24-128-31-131-10-158-19-186-62-16-27-19-46-17-105 5-116 46-143 213-142 143 0 186 26 199 117l6 42h-39c-36 0-39-2-45-34-10-52-27-60-127-60-110 1-129 13-129 84 0 75 10 82 141 92 141 11 179 27 197 83 17 49 9 148-14 183-26 40-72 52-196 52-74-1-124-6-145-15z"/>
        <path d="m7515 3160c-68-34-79-63-83-230-7-265 28-310 244-310 142 0 199 30 224 118 13 49 13 276-1 327s-53 92-98 105c-20 5-83 10-141 10-85 0-113-4-145-20zm284-69c26-26 34-86 30-231-4-119-5-122-32-146-25-22-37-24-122-24-108 0-140 11-155 53-13 39-13 277 0 314 18 47 35 53 152 53 93 0 111-3 127-19z"/>
        <path d="m8090 2899v-281l168 4c190 4 212 11 239 76 19 45 19 171 1 208-28 58-57 69-199 72l-129 4v99 99h-40-40v-281zm326-13c9-13 14-46 14-92 0-98-8-104-152-104h-108v111 111l116-4c101-3 117-6 130-22z"/>
        <path d="m8690 2900v-280h40 40v120 120h150 150v-120-120h40 40v280 280h-40-40v-125-125h-150-150v125 125h-40-40v-280z"/>
        <path d="m9360 2900v-280h40 40v280 280h-40-40v-280z"/>
        <path d="m9601 3172c2-5 47-132 99-281l95-272 59 3 60 3 44 125c24 69 68 194 98 278l54 153-42-3c-39-3-42-5-61-55l-20-53h-133-133l-19 53c-19 50-21 52-62 55-24 2-41-1-39-6zm359-181c0-5-23-76-51-156-40-114-54-143-61-130-11 19-98 275-98 287 0 4 47 8 105 8s105-4 105-9z"/>
        <path d="m5659 2240c-84-15-135-53-164-122-12-30-15-80-15-250 0-185 3-218 19-253 22-48 66-88 118-107 50-17 312-17 371 0 62 19 109 64 127 125 19 65 21 409 3 470-16 53-73 112-123 127s-274 22-336 10zm302-139c24-19 24-21 24-231 0-267 12-250-182-250-129 0-135 1-158 25-25 24-25 25-25 225s0 201 25 225c23 24 29 25 158 25 118 0 138-2 158-19z"/>
        <path d="m10698 2237c-61-18-113-58-141-110-20-38-22-58-25-227-4-211 4-269 48-322 52-63 117-81 300-82 148-1 158 0 205 24 67 35 95 88 95 182v68h-70-70v-58c0-87-9-92-159-92-138 0-185 13-201 55-13 33-13 316 0 370 16 68 33 75 189 75 175 0 181-3 181-101v-69h76 77l-7 82c-9 109-32 150-104 185-49 24-66 26-200 30-101 2-162-1-194-10z"/>
        <path d="m4460 1870v-370h238c264 0 292 6 344 68 62 73 62 260 1 333-52 61-84 69-273 69h-170v135 135h-70-70v-370zm461-39c22-17 24-27 24-95-1-111 0-110-190-114l-155-3v115 116h149c132 0 152-2 172-19z"/>
        <path d="m6600 1870v-370h70 70v310 310h195 195v60 60h-265-265v-370z"/>
        <path d="m7690 2084v-156l-116-166c-65-92-132-188-151-214l-35-48h84 84l106 151 106 150 106-150 107-151h84 84l-154 214-155 214v156 156h-75-75v-156z"/>
        <path d="m8720 1930v-310h-120-120v-60-60h315 315v60 60h-125-125v310 310h-70-70v-310z"/>
        <path d="m9530 1870v-370h270 270v60 60h-200-200v90 90h195 195v60 60h-195-195v100 100h200 200v60 60h-270-270v-370z"/>
        <path d="m11640 1870v-370h70 70v150 150h200 200v-150-150h70 70v370 370h-70-70v-155-155h-200-200v155 155h-70-70v-370z"/>
        <path d="m12557 1579c-27-16-49-67-42-98 19-86 141-106 180-30 23 43 18 77-14 110-23 22-39 29-68 29-21 0-46-5-56-11zm111-22c24-25 26-80 2-110-44-56-131-25-133 47-1 52 41 91 87 82 17-4 37-12 44-19z"/>
        <path d="m12577 1532c-10-10-17-25-17-33 0-23 30-59 49-59 23 0 58 26 48 36-4 5-12 3-16-5-5-7-19-11-32-9-17 2-25 10-27 29-4 35 23 57 49 41s34-15 19 3c-17 20-53 19-73-3z"/>
    </g>
</svg>
