<?xml version="1.0" encoding="UTF-8"?>
<svg
        version="1.1" viewBox="0 0 1570.2 1000"
        xmlns="http://www.w3.org/2000/svg">
    <g transform="translate(714.94 65.435)">
        <g transform="matrix(1.25 0 0 -1.25 -714.94 934.57)">*
            <g transform="translate(-92.143 -239.08)">
                <g transform="matrix(7.703 0 0 7.703 -617.64 -1602.5)">
                    <g transform="translate(92.143 239.19)">
                        <path d="m0 0v14.217 0.597h8.308c1.572 0.011 2.726-0.507 3.384-1.427 0.658-0.913 0.82-2.069 0.824-3.291-4e-3 -0.619 0.01-1.764-0.536-2.829-0.535-1.081-1.76-1.988-3.754-1.964h-5.318v-5.303h-2.908zm2.908 7.857h3.844 0.092c0.831-3e-3 1.483 0.011 1.885 0.123 0.404 0.129 0.537 0.227 0.707 0.614 0.104 0.265 0.174 0.691 0.172 1.301 0.013 1.283-0.168 1.882-0.359 2.05-0.154 0.189-0.637 0.325-1.688 0.315h-4.653v-4.403z"
                              fill="#094270"/>
                    </g>
                    <g transform="translate(119.81 254.11)">
                        <path d="m0 0c1.934-0.022 3.324-0.299 4.28-1.183 0.95-0.899 1.236-2.233 1.236-3.989v-4.851c3e-3 -1.67-0.334-2.981-1.298-3.852-0.963-0.859-2.352-1.154-4.223-1.158h-2.04c-1.872 4e-3 -3.261 0.299-4.225 1.158-0.961 0.871-1.297 2.182-1.295 3.852v4.851c0 1.756 0.285 3.09 1.233 3.989 0.957 0.884 2.347 1.161 4.287 1.184h2.04m-2.04-2.554c-1.245 0.01-1.882-0.168-2.143-0.443-0.281-0.252-0.477-0.882-0.471-2.176v-4.851c1e-3 -1.301 0.247-1.832 0.551-2.069 0.299-0.262 0.976-0.385 2.063-0.385h2.034c1.094 0 1.77 0.123 2.071 0.385 0.302 0.237 0.548 0.768 0.548 2.069v4.851c8e-3 1.294-0.191 1.924-0.47 2.176-0.26 0.275-0.899 0.453-2.143 0.443h-2.04"
                              fill="#094270"/>
                    </g>
                    <g transform="translate(134.47 239.19)">
                        <path d="m0 0v14.814h2.91v-12.261h7.712v-2.553h-10.622z" fill="#094270"/>
                    </g>
                    <g transform="translate(156.15 239.19)">
                        <path d="m0 0v6.091l-6.102 8.722h3.454l4.17-5.935 4.172 5.935h3.515l-6.301-8.726v-6.087h-2.908z"
                              fill="#094270"/>
                    </g>
                    <g transform="translate(176.53 239.19)">
                        <path d="m0 0v12.261h-4.905v2.552h12.717v-2.554l-4.904 2e-3v-11.668-0.593h-2.908z"
                              fill="#094270"/>
                    </g>
                    <g transform="translate(192.47 239.19)">
                        <path d="m0 0v14.814h10.922v-2.554h-8.013v-3.44h7.672v-2.463h-7.672v-3.804h8.013v-2.553h-10.922z"
                              fill="#094270"/>
                    </g>
                    <g transform="translate(217.31 239.08)">
                        <path d="m0 0h-9e-3c-1.487 0-2.756 0.427-3.645 1.291-0.891 0.859-1.347 2.115-1.344 3.592v5.269c-0.025 2.045 0.773 3.438 2.101 4.112 1.303 0.677 2.953 0.761 4.814 0.768h1.413c1.649-1e-3 2.866-0.315 3.682-1.13 0.805-0.824 1.052-1.987 1.052-3.389v-1.031h-2.907v0.594 0.383c7e-3 0.924-0.131 1.413-0.341 1.616-0.185 0.215-0.664 0.407-1.729 0.403h-0.968c-1.317 2e-3 -2.291-0.058-2.928-0.231-0.643-0.186-0.893-0.394-1.082-0.788-0.125-0.273-0.201-0.681-0.199-1.254v-3.742c-2e-3 -1.156 0.026-2.053 0.177-2.645 0.168-0.598 0.349-0.84 0.791-1.045 0.307-0.134 0.774-0.22 1.443-0.218h2.041c1.009-4e-3 1.733 0.052 2.175 0.187 0.442 0.147 0.559 0.264 0.69 0.548 0.08 0.198 0.132 0.513 0.132 0.956v1.686h2.908v-1.869c0.027-1.687-0.677-2.881-1.814-3.434-1.115-0.559-2.495-0.624-4.031-0.629h-2.422"
                              fill="#094270"/>
                    </g>
                    <g transform="translate(244.89 239.19)">
                        <path d="m0 0-1e-3 6.266h-7.671v-6.266h-2.908v14.814h2.909l-1e-3 -5.994h7.671v5.994h2.908v-14.814h-2.907z"
                              fill="#094270"/>
                    </g>
                    <g transform="translate(253.21 256.01)">
                        <path d="m0 0c1.06 0 2.005-0.763 2.005-1.953 0-1.187-0.945-1.953-2.005-1.953-1.061 0-2.007 0.766-2.007 1.953 0 1.19 0.946 1.953 2.007 1.953m0-3.489c0.809 0 1.472 0.648 1.472 1.536 0 0.893-0.663 1.536-1.472 1.536-0.82 0-1.474-0.643-1.474-1.536 0-0.888 0.654-1.536 1.474-1.536m1.023 1.212c-0.083-0.523-0.485-0.826-0.951-0.826-0.677 0-1.124 0.506-1.124 1.159 0 0.675 0.42 1.171 1.115 1.171 0.479 0 0.872-0.283 0.945-0.81h-0.408c-0.052 0.246-0.266 0.392-0.537 0.392-0.398 0-0.611-0.313-0.611-0.742 0-0.406 0.239-0.752 0.62-0.752 0.288 0 0.497 0.157 0.528 0.408h0.423z"
                              fill="#094270"/>
                    </g>
                    <g transform="translate(169.92 342.93)">
                        <path d="m0 0c-17.952-4e-3 -32.912-12.771-36.307-29.723h15.154c1.115 3.235 2.949 6.131 5.329 8.516 4.073 4.062 9.622 6.551 15.824 6.555 6.203-4e-3 11.752-2.493 15.824-6.555 4.063-4.072 6.553-9.622 6.556-15.824-3e-3 -6.204-2.493-11.752-6.556-15.826-4.072-4.061-9.621-6.551-15.824-6.554-6.202 3e-3 -11.751 2.493-15.824 6.554-2.358 2.365-4.181 5.23-5.3 8.427l-15.15 4e-3v-4e-3 -18.67c0-15.916 13.773-14.978 13.773-14.978l8e-3 11.632c6.235-4.777 14.031-7.617 22.493-7.618 20.454 5e-3 37.028 16.578 37.032 37.033-4e-3 20.455-16.578 37.027-37.032 37.031"
                              fill="#00adef"/>
                    </g>
                </g>
            </g>
            <g transform="translate(965.78 177.58)">
                <path d="m0 0c0.301 0 0.57-0.219 0.57-0.556 0-0.338-0.269-0.555-0.57-0.555s-0.569 0.217-0.569 0.555c0 0.337 0.268 0.556 0.569 0.556m0-0.992c0.229 0 0.418 0.182 0.418 0.436 0 0.252-0.189 0.437-0.418 0.437-0.232 0-0.419-0.185-0.419-0.437 0-0.254 0.187-0.436 0.419-0.436m0.29 0.344c-0.022-0.15-0.138-0.236-0.269-0.236-0.194 0-0.32 0.146-0.32 0.33 0 0.192 0.119 0.332 0.317 0.332 0.136 0 0.248-0.079 0.268-0.229h-0.117l-0.151 0.111c-0.114 0-0.173-0.089-0.173-0.21 0-0.116 0.068-0.215 0.176-0.215l0.148 0.117h0.121z"
                      fill="#fff"/>
            </g>
            <g transform="translate(941.13 174.23)">
                <path d="m0 0v2.146 0.093h1.255c0.238 2e-3 0.412-0.078 0.513-0.218 0.098-0.136 0.123-0.311 0.125-0.495-2e-3 -0.095 0-0.267-0.082-0.427-0.08-0.163-0.267-0.301-0.568-0.297h-0.802v-0.802h-0.441zm0.441 1.187h0.581 0.013c0.126 0 0.224 2e-3 0.285 0.021l0.108 0.09c0.013 0.041 0.024 0.104 0.024 0.197 2e-3 0.194-0.024 0.284-0.054 0.312-0.024 0.026-0.096 0.046-0.253 0.045h-0.704v-0.665z"
                      fill="#fff"/>
            </g>
            <g transform="translate(945.32 176.49)">
                <path d="m0 0c0.291-5e-3 0.5-0.047 0.646-0.179 0.143-0.136 0.186-0.34 0.186-0.603v-0.734c0-0.251-0.051-0.451-0.196-0.583-0.144-0.129-0.355-0.173-0.638-0.173h-0.308c-0.283 0-0.492 0.044-0.637 0.173-0.146 0.132-0.198 0.332-0.198 0.583v0.734c0 0.263 0.043 0.467 0.187 0.603 0.146 0.132 0.355 0.174 0.648 0.179h0.308m-0.308-0.388c-0.188 2e-3 -0.285-0.024-0.324-0.063-0.043-0.04-0.072-0.136-0.072-0.331v-0.734c0-0.197 0.039-0.276 0.085-0.311 0.045-0.039 0.147-0.058 0.311-0.058h0.308c0.164 0 0.267 0.019 0.312 0.058 0.047 0.035 0.084 0.114 0.084 0.311v0.734c2e-3 0.195-0.031 0.291-0.072 0.331-0.039 0.039-0.135 0.065-0.324 0.063h-0.308"
                      fill="#fff"/>
            </g>
            <g transform="translate(947.53 174.23)">
                <path d="m0 0v2.239h0.44v-1.851h1.165v-0.388h-1.605z" fill="#fff"/>
            </g>
            <g transform="translate(950.81 174.23)">
                <path d="m0 0v0.923l-0.923 1.316h0.521l0.631-0.897 0.629 0.897h0.532l-0.951-1.318v-0.921h-0.439z"
                      fill="#fff"/>
            </g>
            <g transform="translate(953.88 174.23)">
                <path d="m0 0v1.853h-0.741v0.386h1.921v-0.387l-0.741 1e-3v-1.763-0.09h-0.439z" fill="#fff"/>
            </g>
            <g transform="translate(956.29 174.23)">
                <path d="m0 0v2.239h1.65v-0.387h-1.21v-0.519h1.159v-0.371h-1.159v-0.574h1.21v-0.388h-1.65z"
                      fill="#fff"/>
            </g>
            <g transform="translate(960.04 174.21)">
                <path d="m0 0h-1e-3c-0.225 0-0.416 0.064-0.552 0.193-0.133 0.132-0.203 0.322-0.203 0.544v0.798c-3e-3 0.308 0.117 0.517 0.318 0.619 0.197 0.103 0.446 0.117 0.728 0.118h0.214c0.248 0 0.433-0.048 0.556-0.171 0.122-0.125 0.158-0.301 0.158-0.514v-0.156h-0.439v0.091 0.057c1e-3 0.14-0.02 0.214-0.051 0.246-0.028 0.031-0.1 0.061-0.261 0.059h-0.147c-0.2 0-0.345-9e-3 -0.443-0.035-0.098-0.027-0.134-0.058-0.163-0.119l-0.029-0.188-1e-3 -0.565c0-0.174 4e-3 -0.311 0.028-0.402l0.119-0.158c0.046-0.019 0.117-0.031 0.217-0.03h0.308c0.154-1e-3 0.263 7e-3 0.329 0.026l0.104 0.083 0.021 0.146v0.254h0.438v-0.283c4e-3 -0.254-0.101-0.433-0.272-0.517-0.169-0.087-0.378-0.095-0.611-0.096h-0.365"
                      fill="#fff"/>
            </g>
            <g transform="translate(964.21 174.23)">
                <path d="m0 0v0.947h-1.158v-0.947h-0.44v2.239h0.44v-0.906h1.158v0.906h0.44v-2.239h-0.44z" fill="#fff"/>
            </g>
        </g>
    </g>
</svg>
