<?xml version="1.0" encoding="UTF-8"?>
<svg width="502" height="396" viewBox="0 0 5020 3960" xmlns="http://www.w3.org/2000/svg">
    <g fill="#fff" style="transform:none">
        <path d="m189 3945c-59-19-113-75-140-144-29-73-32-238-6-321 20-68 68-127 121-151 48-22 187-25 251-5l40 12 3 57c3 65 1 66-68 42-56-20-149-20-178 1-46 32-66 91-66 194 0 107 17 158 67 194 34 25 117 26 186 1 24-8 47-15 52-15s9 25 9 56c0 54-1 55-36 70-52 22-180 27-235 9z"/>
        <path d="m715 3951c-111-29-157-101-171-270-13-154 28-290 103-341 31-21 50-26 125-28 75-3 94-1 134 18 91 45 133 163 121 345-10 147-39 211-114 253-45 25-147 37-198 23zm137-125c31-19 51-78 56-161 9-166-31-245-122-245-90 0-121 57-120 220 0 109 10 146 50 181 33 30 94 32 136 5z"/>
        <path d="m4135 3951c-77-19-136-72-155-139-5-20-10-139-10-264v-228h60 60v229 229l26 31c23 28 32 31 81 31 115 0 123-20 123-305v-215h55 55v243c0 214-3 247-19 283-39 85-163 132-276 105z"/>
        <path d="m1230 3685v-255h-75-75v-55-55h215 215v55 55h-80-80v255 255h-60-60v-255z"/>
        <path d="m1590 3630v-310h195 195v55 55h-135-135v70 70h126 125l-3 53-3 52-122 3-123 3v74 75h135 135v55 55h-195-195v-310z"/>
        <path d="m2240 3630v-310h126c156 0 195 11 255 70 59 59 74 112 73 250-2 158-34 228-126 274-48 24-62 26-190 26h-138v-310zm280 175c37-33 52-75 56-154 3-56 0-89-13-125-24-67-57-89-138-94l-65-4v202 202l69-4c51-3 75-9 91-23z"/>
        <path d="m2865 3923c4-10 52-148 107-308 55-159 104-294 108-300 5-5 25-10 45-9l38 1 108 314c60 172 109 314 109 316s-28 3-63 3h-63l-48-150h-87-87l-23 75-22 75h-65c-57 0-63-2-57-17zm301-260c-23-81-41-133-46-133-4 0-14 26-23 58-9 31-19 65-22 75-6 15-1 17 45 17 44 0 51-2 46-17z"/>
        <path d="m3430 3905c0-29 27-76 145-253l145-217-280-6v-54-55h220 220v38c0 31-23 71-145 255l-145 217h150 150v55 55h-230-230v-35z"/>
        <path d="m4540 3629v-310l153 3c123 2 159 6 189 22 99 49 117 219 32 304l-34 34 65 123c36 68 65 126 65 129s-31 6-68 6h-68l-118-240h-48-48v120 120h-60-60v-311zm265-53c33-14 35-17 35-65 0-66-20-81-112-81h-68v80 80h55c31 0 71-7 90-14z"/>
        <path d="m2784 3503c3-16 9-63 13-105l6-78h53 54l-6 33c-15 86-69 177-106 177-17 0-19-4-14-27z"/>
        <path d="m640 3275c0-3 25-23 55-45 73-54 118-55 181-4 24 20 44 40 44 44 0 10-81-4-109-19-19-11-30-10-60 2-35 15-111 30-111 22z"/>
        <path d="m208 3111c-47-16-86-50-110-99-22-46-23-54-23-322v-275h22 23l2 270c3 250 5 273 24 310 30 58 78 79 180 78 95 0 136-18 169-73 19-33 20-55 23-312l3-278h25 24v250c0 263-7 328-43 382-39 56-79 72-192 75-55 1-112-2-127-6z"/>
        <path d="m710 2765c0-309 2-355 15-355 9 0 100 128 212 296l198 297 3-297 2-296h25 25v355c0 339-1 355-19 355-13 0-74-84-212-294-107-162-196-295-199-295-3-1-4 132-2 294l3 295h-26-25v-355z"/>
        <path d="m1350 2765v-355h25 25v355 355h-25-25v-355z"/>
        <path d="m1766 3111c-3-5-39-105-80-222-41-118-95-272-120-343-25-70-46-130-46-133 0-2 12-3 28-1 26 3 30 12 131 306 57 166 107 300 110 297 3-4 51-140 107-303 97-283 103-297 128-300 14-2 26 0 26 4 0 5-55 165-122 356-97 277-126 348-139 348-10 0-20-4-23-9z"/>
        <path d="m2150 2765v-355h200 200v25 25h-175-175v135 135h160 160v25 25h-160-160v145 145h175 175v25 25h-200-200v-355z"/>
        <path d="m2680 2764v-356l163 3c141 4 167 7 202 25 55 29 77 71 82 158 6 94-21 150-87 184-25 13-44 26-43 30s38 74 82 156c45 82 81 151 81 153s-13 3-29 3c-29 0-34-8-112-160l-82-161-202 6-3 158-3 157h-24-25v-356zm340-27c52-26 75-125 47-207-19-57-58-70-209-70h-128v145 145h133c85 0 141-5 157-13z"/>
        <path d="m3315 3113c-69-15-85-25-85-50 0-18 4-24 14-20 96 37 237 41 308 10 57-26 81-67 81-138 0-103-19-118-178-140-122-17-163-32-192-69-48-61-37-186 22-241 43-41 95-55 196-54 109 1 163 16 167 48 3 21 1 23-25 17-135-30-241-26-293 12-33 25-53 86-45 138 10 69 41 86 195 105 148 18 189 48 204 150 15 104-36 191-130 223-45 15-188 21-239 9z"/>
        <path d="m3830 2765v-355h25 25v355 355h-25-25v-355z"/>
        <path d="m4210 2790v-330h-100-100v-25-25h226 225l-3 23c-3 21-8 22-100 25l-98 3v329 330h-25-25v-330z"/>
        <path d="m4560 2765v-355l203 2c194 3 202 4 202 23s-8 20-177 23l-178 2v135 135h160 160v25 25h-160-160v145 145l178 2c169 3 177 4 177 23s-8 20-202 23l-203 2v-355z"/>
        <path d="m4770 2310c45-40 62-49 93-50 20 0 37 1 37 3 0 12-142 97-161 97-21-1-18-6 31-50z"/>
        <path d="m2476 1904c-36-35-6-104 44-104 20 0 60 41 60 61 0 49-69 78-104 43z"/>
        <path d="m2133 1838c-23-28-23-55-2-82 27-34 64-32 92 5 17 24 18 30 6 55-11 23-22 30-50 32-21 2-40-2-46-10z"/>
        <path d="m2817 1832c-10-10-17-28-17-40 0-28 34-62 60-62 27 0 60 35 60 63 0 50-70 76-103 39z"/>
        <path d="m1844 1635c-26-27-26-55 1-84 18-18 63-17 82 2 23 23 19 68-7 89-30 24-46 23-76-7z"/>
        <path d="m3130 1653c-40-14-53-69-22-96 58-53 137 28 82 83-20 20-33 23-60 13z"/>
        <path d="m2443 1585c-32-32-35-39-30-78 11-83 92-121 164-77 86 52 44 190-59 190-33 0-47-7-75-35z"/>
        <path d="m2058 1431c-28-25-33-36-33-76s5-51 33-76c60-54 150-30 171 46 28 103-92 177-171 106z"/>
        <path d="m2840 1433c-22-20-33-40-37-70-5-39-2-46 30-78 29-29 42-35 77-35 58 0 100 41 100 100 0 52-13 76-50 95-45 23-85 19-120-12z"/>
        <path d="m1650 1350c-25-25-26-62-2-83 39-35 102-9 102 41 0 28-34 62-60 62-11 0-29-9-40-20z"/>
        <path d="m3312 1354c-25-17-31-71-10-92s75-15 92 10c22 31 20 45-9 73-28 29-42 31-73 9z"/>
        <path d="m2446 1190c-43-13-93-51-121-90-82-118-43-276 84-342 159-83 342 27 342 206 0 71-25 129-77 174-63 56-148 76-228 52z"/>
        <path d="m1894 1036c-73-73-24-176 82-176 103 0 131 151 37 199-42 21-83 13-119-23z"/>
        <path d="m3012 1054c-60-41-65-123-11-168 81-68 202 9 169 108-6 20-23 45-37 56-31 24-90 26-121 4z"/>
        <path d="m1576 1004c-9-8-16-26-16-40 0-26 32-64 54-64 24 0 66 41 66 64 0 48-70 75-104 40z"/>
        <path d="m3372 1008c-22-22-15-76 13-94 52-34 115 29 81 81-18 28-72 35-94 13z"/>
        <path d="m1647 662c-53-58 28-137 83-82 24 24 25 48 4 78-19 27-64 29-87 4z"/>
        <path d="m2058 651c-28-25-33-36-33-76s5-51 33-76c60-54 150-30 171 46 28 103-92 177-171 106z"/>
        <path d="m2840 653c-22-20-33-40-37-70-5-39-2-46 30-78 29-29 42-35 77-35 58 0 100 41 100 100 0 52-13 76-50 95-45 23-85 19-120-12z"/>
        <path d="m3307 662c-35-39-9-102 41-102 28 0 62 34 62 60 0 27-35 60-63 60-13 0-31-8-40-18z"/>
        <path d="m2480 513c-47-17-81-84-66-131 24-73 122-97 177-43 79 79-6 212-111 174z"/>
        <path d="m1840 370c-11-11-20-29-20-40 0-27 35-60 63-60 50 0 76 70 39 103-25 23-58 21-82-3z"/>
        <path d="m3110 370c-11-11-20-29-20-40 0-27 35-60 63-60 50 0 76 70 39 103-25 23-58 21-82-3z"/>
        <path d="m2140 182c-25-20-30-63-10-87 15-18 74-20 88-2 24 30 23 56-2 82-30 30-46 31-76 7z"/>
        <path d="m2820 180c-25-25-26-62-2-83 39-35 102-9 102 41 0 28-34 62-60 62-11 0-29-9-40-20z"/>
        <path d="m2500 122c-46-14-54-82-14-109 23-15 29-15 52-2 40 23 50 45 32 76-16 28-46 43-70 35z"/>
    </g>
</svg>
